<?xml version="1.0" encoding="utf-8"?>
<!-- Generator: Adobe Illustrator 23.1.1, SVG Export Plug-In . SVG Version: 6.00 Build 0)  -->
<svg version="1.1" id="Layer_1" xmlns="http://www.w3.org/2000/svg" xmlns:xlink="http://www.w3.org/1999/xlink" x="0px" y="0px"
	 viewBox="0 0 648 648" style="enable-background:new 0 0 648 648;" xml:space="preserve">
<style type="text/css">
	.st0{fill:none;stroke:#000000;stroke-width:5;stroke-miterlimit:10;}
</style>
<path class="st0" d="M258.18,181.49c-24.41-7.99-53.96-2.06-70.33,17.74c-14.5,17.53-16.74,42.87-10.54,64.76
	c6.2,21.89,19.76,40.93,34.37,58.37c43.44,51.87,97.8,93.55,143.06,143.84c24-42.85,58.1-79.25,83.68-121.18
	c27.98-45.87,45.48-98.85,45.26-152.58c-0.09-21.74-4.27-45.75-21.27-59.3c-12.03-9.59-28.17-11.99-43.52-12.91
	c-14.77-0.88-30.11-0.61-43.58,5.51c-17.25,7.84-29,24.09-38.94,40.23c-5.64,9.16-10.98,18.55-15.44,28.35
	c-3.59,7.9-5.51,23.57-11.41,29.15c-8-4.9-14.16-18.05-21.83-24.78C279.07,191.12,269.1,185.07,258.18,181.49z"/>
<path class="st0" d="M268.38,256.47c-2.14,0.14-4.35,0.42-6.19,1.52c-3.63,2.17-4.83,6.87-4.96,11.1
	c-0.41,13.44,6.52,25.92,13.84,37.19c22.44,34.56,50.68,65.34,83.19,90.67c9.23-23.41,22.83-44.8,34.56-67.07
	c11.72-22.27,21.76-46.14,22.92-71.28c0.72-15.73-4.04-34.17-18.6-40.15c-9.49-3.9-20.71-1.11-29.14,4.75
	c-8.43,5.86-14.57,14.4-20.26,22.94c-5.6,8.41-9.69,17.38-14.72,26.05c-4.98,8.59-6.88,7.41-14.71,1.25
	C300.67,262.72,286.38,255.27,268.38,256.47z"/>
<path class="st0" d="M175.54,46.91c8.43,12.73,16.87,25.47,25.3,38.2c0.96,1.45,1.97,2.95,3.49,3.78c2,1.1,4.44,0.82,6.7,0.52
	c15.33-2.08,30.67-4.15,46-6.23c-14.47,12.14-28.94,24.28-43.41,36.42c12.22,12.53,24.44,25.05,36.66,37.58
	c-19.91-4.51-40-8.23-60.2-11.13c-6.9,11.23-16.62,20.72-28.02,27.35c1.28-11.69,2.57-23.38,3.85-35.07
	c0.27-2.49,0.53-5.09-0.34-7.44c-1.09-2.92-3.73-4.94-6.28-6.74c-9.42-6.64-19.38-12.52-29.74-17.56
	c11.31-3.78,35.64-3.42,43.82-12.71c4.51-5.13,3.09-12.99,2.93-19.21C176.13,68.38,178.81,51.84,175.54,46.91z"/>
<path class="st0" d="M470.97,363.92c11.35,14.98,20.02,31.99,25.48,49.97c0.47,1.53,1.01,3.21,2.37,4.05
	c1.38,0.85,3.14,0.57,4.73,0.26c18.38-3.58,36.76-7.16,55.14-10.74c-9.67,14.31-21.81,26.95-35.71,37.19
	c15.12,14.39,29.61,29.44,43.41,45.1c-22.24-6.08-44.15-13.4-65.58-21.92c-15.75,14.03-31.5,28.07-47.25,42.1
	c4.72-17.53,9.45-35.07,14.17-52.6c0.71-2.64-45.32-15.25-49.55-16.51c14.18-3.48,37.23-5.85,46.41-19.19
	C474.52,407.22,469.87,380.43,470.97,363.92z"/>
</svg>
