<?xml version="1.0" encoding="utf-8"?>
<!-- Generator: Adobe Illustrator 23.1.1, SVG Export Plug-In . SVG Version: 6.00 Build 0)  -->
<svg version="1.1" xmlns="http://www.w3.org/2000/svg" xmlns:xlink="http://www.w3.org/1999/xlink" x="0px" y="0px"
	 viewBox="0 0 1224 936" style="enable-background:new 0 0 1224 936;" xml:space="preserve">
<style type="text/css">
	.st0{fill:none;stroke:#FFCE00;stroke-width:3;stroke-linecap:round;stroke-miterlimit:10;}
	.st1{fill:none;stroke:#FFE45C;stroke-width:5;stroke-linejoin:round;stroke-miterlimit:10;}
</style>
<g id="img">
	
		<image style="overflow:visible;" width="2626" height="3376" xlink:href="6AE8B29647997446.png"  transform="matrix(0.24 0 0 0.24 297 138.1802)">
	</image>
</g>
<g id="tear_tracks">
	<g>
		
			<image style="overflow:visible;opacity:0.81;" width="65" height="197" xlink:href="6AE8B2964799744A.png"  transform="matrix(1 0 0 1 511.88 526.0602)">
		</image>
		<g>
			<path class="st0" d="M559.09,552.86c-0.57-3.98-6.42-2.08-9.77-0.71c-4.46,0.96-3.84-6.66-10.37-8.9
				c-2.39-0.82-7.68,1.78-3.86,7.33c3.82,5.55-18.4,23.18,5.21,154.4"/>
		</g>
	</g>
	<g>
		
			<image style="overflow:visible;opacity:0.81;" width="75" height="194" xlink:href="6AE8B2964799744D.png"  transform="matrix(1 0 0 1 658.88 526.0602)">
		</image>
		<g>
			<path class="st0" d="M677.01,553.4c0,0-0.6-0.36-0.58-1.68c0.55-3.07,6.52-3.78,8.59-1.94c1.45,0.7,1.77,1.12,2.98,1.48
				c2.8,0.85,4.8,1.01,7.62,0.23c0.68-0.19,2.74-1.7,2.77-1.72c1.53-0.98,4.52-7.24,9.07-6.45c1.11,0.19,2.11,0.74,2.89,1.52
				c1.07,1.07,1.39,2.67,0.71,4.02c-0.01,0.02-0.02,0.04-0.03,0.05c-1.02,1.94-1.23,4.19-0.63,6.29
				c3.27,11.39,13.3,38.09-3.56,147.21"/>
		</g>
	</g>
</g>
<g id="Layer_3">
	<g>
		
			<image style="overflow:visible;opacity:0.81;" width="572" height="125" xlink:href="6AE8B2964799744E.png"  transform="matrix(1 0 0 1 339.88 48.0602)">
		</image>
		<g>
			<g>
				<path class="st1" d="M358.15,153.52V67.37h36.78v11.62h-24.44v26.14h21.3v11.62h-21.3v36.78H358.15z"/>
				<path class="st1" d="M391.3,153.52l19.24-86.15h10.29l19.24,86.15h-12.34l-3.63-18.51h-16.82l-3.63,18.51H391.3z M421.8,123.39
					l-6.05-31.22h-0.24l-6.05,31.22H421.8z"/>
				<path class="st1" d="M446.12,153.52V67.37h12.34v73.81h24.44v12.34H446.12z"/>
				<path class="st1" d="M490.89,153.52V67.37h12.34v73.81h24.44v12.34H490.89z"/>
				<path class="st1" d="M535.66,153.52V67.37h36.78v11.62H548v25.29h21.3v11.62H548v25.29h24.44v12.34H535.66z"/>
				<path class="st1" d="M579.94,153.52V67.37h11.86l18.63,51.91h0.24V67.37h12.34v86.15H611.4l-18.88-51.79h-0.24v51.79H579.94z"/>
				<path class="st1" d="M651.09,153.52l19.24-86.15h10.28l19.24,86.15h-12.34l-3.63-18.51h-16.82l-3.63,18.51H651.09z
					 M681.58,123.39l-6.05-31.22h-0.24l-6.05,31.22H681.58z"/>
				<path class="st1" d="M705.42,153.52V67.37h11.86l18.63,51.91h0.24V67.37h12.34v86.15h-11.62L718,101.73h-0.24v51.79H705.42z"/>
				<path class="st1" d="M758.9,87.7c0-3.47,0.6-6.53,1.82-9.2c1.21-2.66,2.82-4.88,4.84-6.65c1.94-1.69,4.13-2.98,6.59-3.87
					c2.46-0.89,4.94-1.33,7.44-1.33c2.5,0,4.98,0.44,7.44,1.33c2.46,0.89,4.7,2.18,6.71,3.87c1.94,1.77,3.51,3.99,4.72,6.65
					s1.81,5.73,1.81,9.2v4.36h-12.34V87.7c0-2.98-0.83-5.18-2.48-6.59c-1.65-1.41-3.61-2.12-5.87-2.12c-2.26,0-4.22,0.71-5.87,2.12
					c-1.65,1.41-2.48,3.61-2.48,6.59v45.5c0,2.99,0.83,5.18,2.48,6.59c1.65,1.41,3.61,2.12,5.87,2.12c2.26,0,4.21-0.71,5.87-2.12
					c1.65-1.41,2.48-3.61,2.48-6.59v-16.21h-9.8v-10.89h22.14v27.1c0,3.63-0.6,6.74-1.81,9.32c-1.21,2.58-2.78,4.72-4.72,6.41
					c-2.02,1.78-4.26,3.11-6.71,3.99c-2.46,0.89-4.94,1.33-7.44,1.33c-2.5,0-4.98-0.44-7.44-1.33c-2.46-0.89-4.66-2.22-6.59-3.99
					c-2.02-1.69-3.63-3.83-4.84-6.41c-1.21-2.58-1.82-5.69-1.82-9.32V87.7z"/>
				<path class="st1" d="M811.17,153.52V67.37h36.78v11.62h-24.44v25.29h21.3v11.62h-21.3v25.29h24.44v12.34H811.17z"/>
				<path class="st1" d="M855.94,153.52V67.37h12.34v73.81h24.44v12.34H855.94z"/>
			</g>
		</g>
	</g>
</g>
</svg>
